<?xml version="1.0" encoding="UTF-8" standalone="no"?><!DOCTYPE svg PUBLIC "-//W3C//DTD SVG 1.1//EN" "http://www.w3.org/Graphics/SVG/1.1/DTD/svg11.dtd"><svg width="100%" height="100%" viewBox="0 0 1000 1000" version="1.1" xmlns="http://www.w3.org/2000/svg" xmlns:xlink="http://www.w3.org/1999/xlink" xml:space="preserve" xmlns:serif="http://www.serif.com/" style="fill-rule:evenodd;clip-rule:evenodd;stroke-linejoin:round;stroke-miterlimit:2;"><g id="pokeball"><g><path d="M800,522.5c-11.545,155.08 -141.549,277.5 -300,277.5c-158.451,0 -288.455,-122.42 -300,-277.5l151.267,0c10.901,72.134 73.384,127.5 148.733,127.5c75.349,0 137.832,-55.366 148.733,-127.5l151.267,0Z" style="fill:#ff9f9f;"/><path d="M648.733,477.5c-10.901,-72.134 -73.384,-127.5 -148.733,-127.5c-53.398,0 -100.334,27.806 -127.03,69.681c-10.974,17.213 -18.527,36.805 -21.703,57.819l-151.267,0c11.545,-155.08 141.549,-277.5 300,-277.5c76.117,0 145.669,28.25 198.678,74.8c57.34,50.353 95.325,122.116 101.305,202.7l-151.25,0Z" style="fill:#ff9f9f;"/><ellipse cx="499.999" cy="499.999" rx="105.295" ry="105" style="fill:#ff9f9f;"/></g></g></svg>